HIERARCHY
ROOT Hips
{
	OFFSET	0.00	0.00	0.00
	CHANNELS 6 Xposition Yposition Zposition Zrotation Xrotation Yrotation
	JOINT LeftUpLeg
	{
		OFFSET	 0.126116	-0.014019	-0.065224
		CHANNELS 3 Zrotation Xrotation Yrotation
		JOINT LeftLeg
		{
			OFFSET	 0.000000	 0.000000	 0.569914
			CHANNELS 3 Zrotation Xrotation Yrotation
			JOINT LeftFoot
			{
				OFFSET	 0.000000	 0.000000	 0.544423
				CHANNELS 3 Zrotation Xrotation Yrotation
				JOINT LeftToeBase
				{
					OFFSET	 0.000000	 0.000000	 0.207117
					CHANNELS 3 Zrotation Xrotation Yrotation
					End Site
					{
						OFFSET	 0.000000	 0.000000	 0.207117
					}
				}
			}
		}
	}
	JOINT RightUpLeg
	{
		OFFSET	-0.124023	-0.008373	-0.065224
		CHANNELS 3 Zrotation Xrotation Yrotation
		JOINT RightLeg
		{
			OFFSET	 0.000000	 0.000000	 0.570047
			CHANNELS 3 Zrotation Xrotation Yrotation
			JOINT RightFoot
			{
				OFFSET	 0.000000	 0.000000	 0.544354
				CHANNELS 3 Zrotation Xrotation Yrotation
				JOINT RightToeBase
				{
					OFFSET	 0.000000	 0.000000	 0.207540
					CHANNELS 3 Zrotation Xrotation Yrotation
					End Site
					{
						OFFSET	 0.000000	 0.000000	 0.207540
					}
				}
			}
		}
	}
	JOINT Spine
	{
		OFFSET	 0.000184	-0.007763	 0.117403
		CHANNELS 3 Zrotation Xrotation Yrotation
		JOINT Spine1
		{
			OFFSET	 0.000000	 0.000000	 0.137269
			CHANNELS 3 Zrotation Xrotation Yrotation
			JOINT Spine2
			{
				OFFSET	 0.000000	 0.000000	 0.156879
				CHANNELS 3 Zrotation Xrotation Yrotation
				JOINT LeftShoulder
				{
					OFFSET	 0.080501	-0.002496	 0.160144
					CHANNELS 3 Zrotation Xrotation Yrotation
					JOINT LeftArm
					{
						OFFSET	 0.000000	 0.000000	 0.164363
						CHANNELS 3 Zrotation Xrotation Yrotation
						JOINT LeftForeArm
						{
							OFFSET	 0.000000	 0.000000	 0.364576
							CHANNELS 3 Zrotation Xrotation Yrotation
							JOINT LeftHand
							{
								OFFSET	 0.000000	 0.000000	 0.360812
								CHANNELS 3 Zrotation Xrotation Yrotation
								JOINT LeftHandIndex1
								{
									OFFSET	 0.000000	 0.000000	 0.086006
									CHANNELS 3 Zrotation Xrotation Yrotation
									JOINT LeftHandIndex2
									{
										OFFSET	 0.000000	 0.000000	 0.047237
										CHANNELS 3 Zrotation Xrotation Yrotation
										JOINT LeftHandIndex3
										{
											OFFSET	-0.004284	-0.000551	 0.038165
											CHANNELS 3 Zrotation Xrotation Yrotation
											End Site
											{
												OFFSET	-0.004284	-0.000551	 0.038165
											}
										}
									}
								}
							}
						}
					}
				}
				JOINT Neck
				{
					OFFSET	 0.000000	 0.000000	 0.176489
					CHANNELS 3 Zrotation Xrotation Yrotation
					JOINT Head
					{
						OFFSET	 0.000000	-0.001747	 0.077940
						CHANNELS 3 Zrotation Xrotation Yrotation
						End Site
						{
							OFFSET	 0.000000	-0.001747	 0.077940
						}
					}
				}
				JOINT RightShoulder
				{
					OFFSET	-0.080363	 0.000306	 0.159706
					CHANNELS 3 Zrotation Xrotation Yrotation
					JOINT RightArm
					{
						OFFSET	 0.000000	 0.000000	 0.164196
						CHANNELS 3 Zrotation Xrotation Yrotation
						JOINT RightForeArm
						{
							OFFSET	 0.000000	 0.000000	 0.365611
							CHANNELS 3 Zrotation Xrotation Yrotation
							JOINT RightHand
							{
								OFFSET	 0.000000	 0.000000	 0.360648
								CHANNELS 3 Zrotation Xrotation Yrotation
								JOINT RightHandIndex1
								{
									OFFSET	 0.000000	 0.000000	 0.069977
									CHANNELS 3 Zrotation Xrotation Yrotation
									JOINT RightHandIndex2
									{
										OFFSET	 0.000000	 0.000000	 0.052305
										CHANNELS 3 Zrotation Xrotation Yrotation
										JOINT RightHandIndex3
										{
											OFFSET	 0.009002	-0.000782	 0.042196
											CHANNELS 3 Zrotation Xrotation Yrotation
											End Site
											{
												OFFSET	 0.009002	-0.000782	 0.042196
											}
										}
									}
								}
							}
						}
					}
				}
			}
		}
	}
}
MOTION
Frames:    5
Frame Time: 0.03333334
-0.720123	-0.034849	 1.284316	 169.772900	-11.529820	-0.433920	-23.741570	 2.931033	-168.877400	-2.106155	-29.542750	-1.761899	 5.174786	 74.378040	-19.083200	-2.385833	 28.452760	 0.000004	-1.347817	 3.191026	-176.858400	 10.060380	-32.578710	 5.578269	-45.217250	 81.877840	 46.580300	 2.384659	 28.388700	-0.000001	 9.721138	 9.794857	-13.599430	 3.122300	 11.022030	-5.897315	 13.822540	-6.651512	 11.534560	-91.776250	 78.527420	-179.999900	-10.624050	 50.617150	-17.224400	-24.706950	 20.099000	-72.147250	-32.005000	-22.748540	-18.908250	-4.130354	 21.526190	 0.991307	-5.167926	 0.731697	 3.519349	-1.378229	 35.397820	-2.634230	 14.478610	 6.111629	-2.327733	 9.532643	-13.872650	-1.511563	 89.782100	 78.203870	 180.000000	-49.268100	 5.006908	 93.472180	 10.506340	 1.591484	 131.157000	 15.311580	 24.989410	 6.711406	 5.716295	 19.173350	-3.684826	 5.027458	 0.246833	-9.377971	-2.350882	 35.473990	 5.254307
-0.720156	-0.035220	 1.284031	 169.463000	-11.522930	-0.160738	-23.995090	 2.971486	-168.967400	-1.956453	-29.601240	-1.690892	 4.848079	 74.270690	-18.868510	-2.385833	 28.452760	 0.000004	-1.643903	 3.102704	-176.946100	 10.219090	-32.564540	 5.663550	-45.301240	 81.888380	 46.533170	 2.384659	 28.388700	-0.000001	 10.725710	 9.549442	-14.569930	 3.551792	 11.354460	-6.146483	 13.904840	-7.460886	 12.572990	-91.776160	 78.527420	 180.000000	-13.960930	 48.287730	-17.272520	-24.657150	 20.560060	-72.637850	-32.695930	-22.948100	-19.415780	-4.130354	 21.526190	 0.991307	-5.167926	 0.731697	 3.519349	-1.378229	 35.397820	-2.634230	 14.621570	 5.747908	-2.834062	 9.396815	-14.383130	-2.699558	 89.782030	 78.203890	-180.000000	-49.795040	 4.599305	 94.038100	 10.923980	 1.147467	 130.303800	 12.813580	 25.523680	 7.260532	 5.716295	 19.173350	-3.684826	 5.027458	 0.246833	-9.377971	-2.350882	 35.473990	 5.254307
-0.720230	-0.035832	 1.283846	 169.136600	-11.520170	 0.209660	-24.173260	 2.930301	-169.087800	-1.805448	-29.658370	-1.618945	 4.587293	 73.993550	-18.741330	-2.385833	 28.452760	 0.000004	-1.924972	 2.957016	-176.999600	 10.383190	-32.528640	 5.748429	-44.211400	 81.863610	 45.272280	 2.384659	 28.388700	-0.000001	 11.788130	 9.299370	-15.669910	 3.892445	 11.805870	-6.140238	 14.013000	-8.391457	 13.698130	-91.776160	 78.527380	 180.000000	-17.513290	 45.689010	-17.787050	-24.566080	 20.977670	-73.184530	-33.274780	-23.076070	-19.769990	-4.130354	 21.526190	 0.991307	-5.167926	 0.731697	 3.519349	-1.378229	 35.397820	-2.634230	 14.819040	 5.219743	-3.607187	 9.204829	-14.752610	-4.041464	 89.782040	 78.203870	-180.000000	-50.466900	 4.314460	 94.741840	 11.355580	 0.658351	 129.439900	 10.222860	 26.134670	 7.909717	 5.716295	 19.173350	-3.684826	 5.027458	 0.246833	-9.377971	-2.350882	 35.473990	 5.254307
-0.719697	-0.036337	 1.283420	 168.926900	-11.451320	 0.351067	-24.487400	 2.692791	-168.993000	-1.678733	-29.635890	-1.555044	 4.687139	 73.797880	-18.953820	-2.385833	 28.452760	 0.000004	-2.199803	 2.698394	-176.826400	 10.534210	-32.565370	 5.837508	-42.847400	 81.878200	 43.766040	 2.384659	 28.388700	-0.000001	 12.590000	 8.847865	-16.016130	 4.258235	 12.417880	-5.941617	 14.086670	-9.292301	 13.922170	-91.776090	 78.527380	 179.999900	-21.184780	 43.635540	-18.736260	-24.519710	 21.205450	-73.466650	-33.839740	-23.300140	-20.169450	-4.130354	 21.526190	 0.991307	-5.167926	 0.731697	 3.519349	-1.378229	 35.397820	-2.634230	 14.935450	 5.178549	-4.001409	 9.102398	-15.404090	-4.330365	 89.782100	 78.203830	-180.000000	-50.457390	 3.881990	 95.280330	 11.742740	 0.192648	 128.687100	 7.932420	 26.419890	 8.431533	 5.716295	 19.173350	-3.684826	 5.027458	 0.246833	-9.377971	-2.350882	 35.473990	 5.254307
-0.719080	-0.036757	 1.282999	 168.729200	-11.357180	 0.446930	-24.850680	 2.441369	-168.880900	-1.552266	-29.587020	-1.490119	 4.789225	 73.652030	-19.153600	-2.385833	 28.452760	 0.000004	-2.495011	 2.421455	-176.640200	 10.687480	-32.610590	 5.929358	-41.678680	 81.886980	 42.471450	 2.384659	 28.388700	-0.000001	 13.401700	 8.304884	-16.212650	 4.705788	 13.029150	-5.792748	 14.142150	-10.161850	 14.002440	-91.776180	 78.527420	 180.000000	-24.719510	 41.745660	-20.442970	-24.671630	 21.348810	-73.179020	-34.432240	-23.551660	-20.596480	-4.130354	 21.526190	 0.991307	-5.167926	 0.731697	 3.519349	-1.378229	 35.397820	-2.634230	 15.040330	 5.238938	-4.330873	 9.015599	-16.140920	-4.408408	 89.782120	 78.203850	 180.000000	-50.253230	 3.432949	 95.831950	 12.125800	-0.293935	 127.891900	 5.686885	 26.589340	 8.814527	 5.716295	 19.173350	-3.684826	 5.027458	 0.246833	-9.377971	-2.350882	 35.473990	 5.254307
